<svg width="36" height="36" viewBox="0 0 36 36" fill="none" xmlns="http://www.w3.org/2000/svg">
<g clip-path="url(#clip0_322_2078)">
<path d="M18 13.3747C17.086 13.3747 16.1926 13.6455 15.4326 14.1528C14.6727 14.6601 14.0804 15.3812 13.7306 16.2248C13.3808 17.0684 13.2893 17.9967 13.4676 18.8923C13.6459 19.7878 14.0861 20.6105 14.7324 21.2562C15.3786 21.9018 16.202 22.3415 17.0984 22.5196C17.9949 22.6978 18.924 22.6064 19.7684 22.2569C20.6129 21.9075 21.3346 21.3158 21.8423 20.5566C22.3502 19.7973 22.6212 18.9047 22.6212 17.9915C22.6226 17.3848 22.5042 16.7839 22.2724 16.2231C22.0407 15.6622 21.7004 15.1527 21.271 14.7237C20.8416 14.2947 20.3315 13.9546 19.7702 13.7231C19.2088 13.4917 18.6073 13.3733 18 13.3747ZM18 20.9981C17.4048 20.9981 16.8229 20.8218 16.328 20.4914C15.8332 20.1611 15.4475 19.6916 15.2197 19.1422C14.9919 18.5928 14.9323 17.9883 15.0484 17.405C15.1646 16.8218 15.4512 16.286 15.872 15.8656C16.2929 15.4451 16.8291 15.1588 17.4129 15.0428C17.9967 14.9268 18.6018 14.9863 19.1517 15.2139C19.7016 15.4414 20.1716 15.8268 20.5022 16.3212C20.8329 16.8156 21.0094 17.3969 21.0094 17.9915C21.0094 18.7889 20.6923 19.5537 20.128 20.1175C19.5636 20.6814 18.7981 20.9981 18 20.9981ZM23.8948 13.1833C23.8948 13.406 23.8288 13.6237 23.7049 13.8089C23.581 13.9941 23.405 14.1384 23.199 14.2236C22.9931 14.3089 22.7664 14.3312 22.5478 14.2877C22.3291 14.2443 22.1284 14.137 21.9707 13.9795C21.8131 13.8221 21.7057 13.6214 21.6622 13.403C21.6187 13.1845 21.641 12.9581 21.7263 12.7524C21.8117 12.5466 21.9562 12.3708 22.1415 12.247C22.3269 12.1233 22.5447 12.0572 22.7677 12.0572C23.0666 12.0572 23.3533 12.1759 23.5647 12.3871C23.7761 12.5982 23.8948 12.8847 23.8948 13.1833ZM26.9493 14.3094C26.9821 12.9095 26.4594 11.5534 25.4953 10.5371C24.4834 9.56155 23.1254 9.02698 21.7195 9.05067C20.2542 8.98311 15.7458 8.98311 14.2805 9.05067C12.8798 9.02037 11.5234 9.54221 10.5047 10.5033C9.54061 11.5197 9.01794 12.8757 9.05072 14.2756C8.98309 15.7394 8.98309 20.2437 9.05072 21.7075C9.01794 23.1074 9.54061 24.4634 10.5047 25.4798C11.5234 26.4409 12.8798 26.9627 14.2805 26.9324C15.7683 27.0225 20.2317 27.0225 21.7195 26.9324C23.1207 26.9652 24.478 26.4431 25.4953 25.4798C26.4594 24.4634 26.9821 23.1074 26.9493 21.7075C27.0169 20.2437 27.0169 15.7394 26.9493 14.2756V14.3094ZM25.0332 23.3178C24.8801 23.7052 24.6492 24.0568 24.3544 24.3513C24.0597 24.6458 23.7077 24.8765 23.32 25.0294C21.5702 25.3829 19.7815 25.504 18 25.3897C16.2223 25.5041 14.4372 25.383 12.6913 25.0294C12.3036 24.8765 11.9516 24.6458 11.6569 24.3513C11.3621 24.0568 11.1311 23.7052 10.9781 23.3178C10.5047 22.1242 10.6061 19.309 10.6061 18.0028C10.6061 16.6966 10.5047 13.8702 10.9781 12.6878C11.1268 12.2967 11.3562 11.9412 11.6513 11.6444C11.9465 11.3476 12.3008 11.1161 12.6913 10.965C14.4372 10.6114 16.2223 10.4902 18 10.6046C19.7815 10.4904 21.5702 10.6116 23.32 10.965C23.7077 11.1179 24.0597 11.3487 24.3544 11.6431C24.6492 11.9375 24.8801 12.2893 25.0332 12.6766C25.5066 13.8702 25.3939 16.6853 25.3939 17.9915C25.3939 19.2978 25.5066 22.1242 25.0332 23.3065V23.3178Z" fill="#ECECEC"/>
<path d="M18 0C8.05781 0 0 8.05781 0 18C0 27.9422 8.05781 36 18 36C27.9422 36 36 27.9422 36 18C36 8.05781 27.9422 0 18 0ZM29.2359 29.2289C27.7734 30.6914 26.0789 31.8375 24.1875 32.632C22.2328 33.4617 20.1516 33.8766 18 33.8766C15.8555 33.8766 13.7742 33.4547 11.8125 32.632C9.92109 31.8305 8.21953 30.6844 6.76406 29.2289C5.30156 27.7664 4.15547 26.0719 3.36094 24.1805C2.53125 22.2258 2.10938 20.1445 2.10938 18C2.10938 15.8555 2.53125 13.7742 3.35391 11.8125C4.15547 9.92109 5.30156 8.21953 6.75703 6.76406C8.22656 5.30156 9.92109 4.15547 11.8125 3.35391C13.7742 2.53125 15.8555 2.10938 18 2.10938C20.1445 2.10938 22.2258 2.53125 24.1875 3.35391C26.0789 4.15547 27.7805 5.30156 29.2359 6.75703C30.6984 8.21953 31.8445 9.91406 32.6391 11.8055C33.4688 13.7602 33.8836 15.8414 33.8836 17.993C33.8836 20.1375 33.4617 22.2188 32.6391 24.1805C31.8375 26.0719 30.6914 27.7734 29.2359 29.2289Z" fill="#ECECEC"/>
</g>
<defs>
<clipPath id="clip0_322_2078">
<rect width="36" height="36" fill="white"/>
</clipPath>
</defs>
</svg>
