<svg width="36" height="36" viewBox="0 0 36 36" fill="none" xmlns="http://www.w3.org/2000/svg">
<g clip-path="url(#clip0_322_2072)">
<path d="M18 0C8.05781 0 0 8.05781 0 18C0 27.9422 8.05781 36 18 36C27.9422 36 36 27.9422 36 18C36 8.05781 27.9422 0 18 0ZM29.2359 29.2289C27.7734 30.6914 26.0789 31.8375 24.1875 32.632C22.2328 33.4617 20.1516 33.8766 18 33.8766C15.8555 33.8766 13.7742 33.4547 11.8125 32.632C9.92109 31.8305 8.21953 30.6844 6.76406 29.2289C5.30156 27.7664 4.15547 26.0719 3.36094 24.1805C2.53125 22.2258 2.10938 20.1445 2.10938 18C2.10938 15.8555 2.53125 13.7742 3.35391 11.8125C4.15547 9.92109 5.30156 8.21953 6.75703 6.76406C8.22656 5.30156 9.92109 4.15547 11.8125 3.35391C13.7742 2.53125 15.8555 2.10938 18 2.10938C20.1445 2.10938 22.2258 2.53125 24.1875 3.35391C26.0789 4.15547 27.7805 5.30156 29.2359 6.75703C30.6984 8.21953 31.8445 9.91406 32.6391 11.8055C33.4688 13.7602 33.8836 15.8414 33.8836 17.993C33.8836 20.1375 33.4617 22.2188 32.6391 24.1805C31.8375 26.0719 30.6914 27.7734 29.2359 29.2289Z" fill="#ECECEC"/>
<path d="M12.9656 14.3016H9.45703V25.5305H12.9656V14.3016Z" fill="#ECECEC"/>
<path d="M11.1377 9C9.84395 9 8.99316 9.83672 8.99316 10.9477C8.99316 12.0375 9.81582 12.8953 11.0885 12.8953H11.1166C12.4385 12.8953 13.2611 12.0305 13.2541 10.9477C13.226 9.83672 12.4314 9 11.1377 9Z" fill="#ECECEC"/>
<path d="M22.5496 14.1961C20.5387 14.1961 19.2801 15.293 19.048 16.0664V14.3016H15.1035C15.1527 15.2367 15.1035 25.5305 15.1035 25.5305H19.048V19.4625C19.048 19.118 19.034 18.7805 19.1324 18.5414C19.3996 17.8664 19.9832 17.1633 21.0309 17.1633C22.402 17.1633 23.0207 18.2039 23.0207 19.7227V25.5305H27.0004V19.2867C27.0004 15.8133 25.0457 14.1961 22.5496 14.1961Z" fill="#ECECEC"/>
</g>
<defs>
<clipPath id="clip0_322_2072">
<rect width="36" height="36" fill="white"/>
</clipPath>
</defs>
</svg>
