<svg width="288" height="96" viewBox="0 0 288 96" fill="none" xmlns="http://www.w3.org/2000/svg">
<path d="M11.3 62C7.83333 62 5.16667 61.1 3.3 59.3C1.5 57.7 0.6 55.5667 0.6 52.9C0.6 50.3 1.46667 47.6667 3.2 45C3.2 44 3.3 43 3.5 42C4.63333 35.4 8.36667 29.6333 14.7 24.7C13.9667 23.5667 13.6 22.3667 13.6 21.1C13.6 17.0333 16.5 13.3 22.3 9.9C29.2333 5.96666 38.0667 4.03333 48.8 4.09999C50.4667 2.23333 52.3 1.13333 54.3 0.799995C54.7667 0.73333 55 0.866663 55 1.2C55 1.8 54.6667 2.13333 54 2.2C53 2.4 51.9667 3.06666 50.9 4.2C57.3667 4.53333 62.6 5.66666 66.6 7.6C70.8667 9.66667 73 12.4333 73 15.9C73 18.1 72.1333 20.2333 70.4 22.3C68.7333 24.3667 66.5 26.2333 63.7 27.9C60.9 29.5 57.8 30.8667 54.4 32C53.9333 37.2667 51.1667 41 46.1 43.2C45.7667 43.3333 45.5667 43.2667 45.5 43C45.4333 42.7333 45.5 42.5667 45.7 42.5C50.3667 40.4333 53 37.0333 53.6 32.3C49.2667 33.6333 44.7333 34.4333 40 34.7C33.8667 52.9 24.3 62 11.3 62ZM15.9 23.8C21.9 19.4 28.8667 17.1333 36.8 17C39.0667 11.9333 41.0667 8.7 42.8 7.3C43 7.16666 43.2 7.2 43.4 7.4C43.5333 7.6 43.5 7.8 43.3 8C41.7 9.2 39.9 12.2 37.9 17L39.8 17.1C40.3333 17.1667 40.8667 17.2667 41.4 17.4C43.6 11.8667 45.7667 7.76667 47.9 5.1C39.3667 5.16667 31.6333 7.26667 24.7 11.4C18.5 15 15.4 18.5 15.4 21.9C15.4 22.6333 15.5667 23.2667 15.9 23.8ZM54.4 30.2C63.8 26.6 68.7667 22 69.3 16.4C69.5 13.4 67.7333 10.8333 64 8.7C60.2667 6.56667 55.6667 5.4 50.2 5.2C49.4667 6.33333 48.6333 8 47.7 10.2C46.8333 12.3333 45.9333 15 45 18.2C45.8 18.4667 46.6333 18.8667 47.5 19.4C50.0333 18.0667 52.3667 16.6667 54.5 15.2C54.7667 14.9333 55.0667 14.8 55.4 14.8C55.6 14.8 55.7 14.9333 55.7 15.2C55.7 15.6667 55.3667 16.1 54.7 16.5C53.6333 17.2333 52.6333 17.9 51.7 18.5C50.7667 19.1 49.8333 19.6667 48.9 20.2C52.5 22.7333 54.3333 26.0667 54.4 30.2ZM22.4 25.9C22.9333 25.9 23.5 25.9 24.1 25.9C24.7 25.8333 25.3333 25.7667 26 25.7C27.3333 25.5667 28.6333 25.4 29.9 25.2C31.1667 25 32.4667 24.7333 33.8 24.4C34.6 22.1333 35.4667 19.9333 36.4 17.8C29.2 18 22.6667 20.2667 16.8 24.6C17.8667 25.4667 19.7333 25.9 22.4 25.9ZM35.4 24C36.8667 23.6667 38.2 23.2667 39.4 22.8L41.1 18.1C39.9667 17.9 38.8 17.8 37.6 17.8L36.5 20.7C36.1 21.7667 35.7333 22.8667 35.4 24ZM44.2 21L46.7 19.8L44.8 19L44.2 21ZM40.5 33.4C41.9 33.2667 43.5667 33.0667 45.5 32.8C48.3667 32.2 51.1 31.4333 53.7 30.5C53.5667 26.3667 51.7 23.1 48.1 20.7C47.3667 21.1667 46.6 21.6 45.8 22C45.0667 22.3333 44.3333 22.6667 43.6 23L41.8 29.1C41.2667 30.8333 40.8333 32.2667 40.5 33.4ZM11.2 60.6C20.7333 60.6 28.5667 52.4333 34.7 36.1L38.6 25.1C37.9333 25.3667 37.2667 25.6333 36.6 25.9C35.9333 26.1 35.2667 26.2667 34.6 26.4L34.2 27.8C34.0667 28.2667 33.9333 28.7333 33.8 29.2C31.8667 35.8 29.4333 41.5 26.5 46.3C22.3 53.1667 17.7667 56.6 12.9 56.6C7.9 56.6 4.8 54.1 3.6 49.1C2.86667 50.7667 2.5 52.3 2.5 53.7C2.5 58.3 5.4 60.6 11.2 60.6ZM12.7 55.8C17.3 55.8 21.5333 52.5 25.4 45.9C28.0667 41.4333 30.3667 35.8 32.3 29L33 26.8C29.4667 27.6 26.4333 28 23.9 28C20.1667 28 17.4 27.2 15.6 25.6C9.46667 30.5333 5.9 36.0667 4.9 42.2L4.8 42.7C9.46667 37.2333 16.3333 34.0333 25.4 33.1C25.6 33.0333 25.7667 33.1 25.9 33.3C25.9667 33.5 25.9667 33.7 25.9 33.9C25.8333 34.1 25.6333 34.2667 25.3 34.4C15.7 35.9333 8.8 40.1333 4.6 47C4.93333 52.8667 7.63333 55.8 12.7 55.8ZM79.0445 56.2C78.3779 56.2 78.0779 55.8667 78.1445 55.2C78.3445 54.3333 78.5779 53.0333 78.8445 51.3C79.1112 49.5 79.4112 47.2 79.7445 44.4C79.8779 43.1333 80.0112 42 80.1445 41C80.2779 39.9333 80.3779 38.9667 80.4445 38.1L80.7445 34.4C80.8112 33.6667 81.2445 33.0333 82.0445 32.5C82.9112 31.9667 83.7779 31.7 84.6445 31.7C85.8445 31.7 86.2779 32.2 85.9445 33.2L84.5445 38.4C84.2112 39.3333 83.9112 40.3 83.6445 41.3C83.3779 42.3 83.0779 43.3333 82.7445 44.4C84.4112 41.5333 86.4112 38.8333 88.7445 36.3C91.3445 33.6333 93.2779 32.3 94.5445 32.3C96.1445 32.3 97.2779 33.2 97.9445 35C98.6779 36.7333 98.7112 37.6 98.0445 37.6C97.9112 37.6 97.6779 37.3333 97.3445 36.8C96.7445 35.6 95.9112 35 94.8445 35C92.1779 35 88.8779 37.9667 84.9445 43.9C82.7445 47.2333 81.0779 51.0667 79.9445 55.4C79.8112 55.9333 79.5112 56.2 79.0445 56.2ZM114.648 56.4C112.515 56.0667 111.448 54.5667 111.448 51.9C111.448 47.8333 113.315 43.3333 117.048 38.4C120.915 33.2 124.915 30.6 129.048 30.6C130.448 30.6 131.715 30.9333 132.848 31.6C134.048 32.2 134.648 33.1667 134.648 34.5C134.648 36.0333 134.015 36.9 132.748 37.1C133.148 36.4333 133.348 35.7667 133.348 35.1C133.348 33.6333 132.515 32.9 130.848 32.9C129.248 32.9 127.515 33.7 125.648 35.3C121.048 39.2333 117.682 43.8 115.548 49C114.882 50.6 114.548 51.9333 114.548 53C114.548 53.8667 114.848 54.3 115.448 54.3C116.115 54.3 117.282 53.5333 118.948 52C120.082 50.9333 122.548 47.7 126.348 42.3C127.348 40.9 128.148 40.2 128.748 40.2C129.282 40.2 129.548 41.6 129.548 44.4V50C130.148 52.9333 131.182 54.4 132.648 54.4C133.448 54.4 134.415 54.1333 135.548 53.6C136.748 53 137.915 52.0667 139.048 50.8L140.848 48.9C141.048 48.8333 141.282 48.9667 141.548 49.3C141.282 50.0333 140.115 51.2667 138.048 53C135.448 55.2 133.048 56.3 130.848 56.3C130.248 56.3 129.648 56.2 129.048 56C127.315 55.4 126.182 53.5333 125.648 50.4C125.515 49.5333 125.382 48.8 125.248 48.2C125.182 47.6 125.148 47.1 125.148 46.7C125.148 46.5 125.148 46.3333 125.148 46.2C124.748 47 123.582 48.6667 121.648 51.2C118.782 54.9333 116.448 56.6667 114.648 56.4ZM143.304 96C138.437 96 134.537 94.5333 131.604 91.6C129.537 89.5333 128.504 87.2333 128.504 84.7C128.504 81.7667 129.804 78.9 132.404 76.1C135.804 72.3667 141.437 68.2667 149.304 63.8L169.104 52.6C168.971 51.5333 168.737 50.4667 168.404 49.4C168.137 48.2667 167.804 47.0667 167.404 45.8C167.471 46.1333 166.271 47.9333 163.804 51.2C160.871 54.9333 158.504 56.6667 156.704 56.4C154.571 56.0667 153.504 54.5667 153.504 51.9C153.504 47.8333 155.371 43.3333 159.104 38.4C163.104 33.2 167.137 30.6 171.204 30.6C172.537 30.6 173.771 30.9333 174.904 31.6C176.104 32.2 176.704 33.1667 176.704 34.5C176.704 36.0333 176.071 36.9 174.804 37.1C175.204 36.4333 175.404 35.7667 175.404 35.1C175.404 33.6333 174.571 32.9 172.904 32.9C171.304 32.9 169.571 33.7 167.704 35.3C163.171 39.1667 159.837 43.7333 157.704 49C156.971 50.8 156.604 52.1333 156.604 53C156.604 53.8667 156.904 54.3 157.504 54.3C158.171 54.3 159.337 53.5333 161.004 52C162.137 50.9333 164.604 47.7 168.404 42.3C169.404 40.9 170.204 40.2 170.804 40.2C171.337 40.2 171.604 40.8 171.604 42C171.604 42.8667 171.571 43.7 171.504 44.5C171.504 45.3 171.504 46.0667 171.504 46.8C171.504 48.2667 171.571 49.6667 171.704 51C172.571 50.4667 173.504 49.8 174.504 49C175.571 48.2 176.671 47.2667 177.804 46.2C178.471 45.6 178.937 45.3 179.204 45.3C179.337 45.3 179.404 45.3667 179.404 45.5C179.404 45.9667 178.937 46.6667 178.004 47.6C177.337 48.3333 176.471 49.1667 175.404 50.1C174.404 50.9667 173.204 51.9667 171.804 53.1C172.071 55.2333 172.204 57.3333 172.204 59.4C172.204 70.8 168.971 79.9667 162.504 86.9C156.904 92.9667 150.504 96 143.304 96ZM140.904 93.2C144.504 93.2 148.004 92.4667 151.404 91C155.804 89.3333 159.571 86.8 162.704 83.4C167.637 78.0667 170.104 71.1667 170.104 62.7C170.104 61.3667 170.037 60 169.904 58.6C169.837 57.2667 169.671 55.8667 169.404 54.4C150.871 65.3333 139.204 73.4 134.404 78.6C131.871 81.3333 130.604 83.9 130.604 86.3C130.604 87.7 131.171 89.0333 132.304 90.3C134.237 92.2333 137.104 93.2 140.904 93.2ZM199.285 56.4C197.152 56.0667 196.085 54.5667 196.085 51.9C196.085 47.8333 197.952 43.3333 201.685 38.4C205.552 33.2 209.552 30.6 213.685 30.6C215.085 30.6 216.352 30.9333 217.485 31.6C218.685 32.2 219.285 33.1667 219.285 34.5C219.285 36.0333 218.652 36.9 217.385 37.1C217.785 36.4333 217.985 35.7667 217.985 35.1C217.985 33.6333 217.152 32.9 215.485 32.9C213.885 32.9 212.152 33.7 210.285 35.3C205.685 39.2333 202.318 43.8 200.185 49C199.518 50.6 199.185 51.9333 199.185 53C199.185 53.8667 199.485 54.3 200.085 54.3C200.752 54.3 201.918 53.5333 203.585 52C204.718 50.9333 207.185 47.7 210.985 42.3C211.985 40.9 212.785 40.2 213.385 40.2C213.918 40.2 214.185 41.6 214.185 44.4V50C214.785 52.9333 215.818 54.4 217.285 54.4C218.085 54.4 219.052 54.1333 220.185 53.6C221.385 53 222.552 52.0667 223.685 50.8L225.485 48.9C225.685 48.8333 225.918 48.9667 226.185 49.3C225.918 50.0333 224.752 51.2667 222.685 53C220.085 55.2 217.685 56.3 215.485 56.3C214.885 56.3 214.285 56.2 213.685 56C211.952 55.4 210.818 53.5333 210.285 50.4C210.152 49.5333 210.018 48.8 209.885 48.2C209.818 47.6 209.785 47.1 209.785 46.7C209.785 46.5 209.785 46.3333 209.785 46.2C209.385 47 208.218 48.6667 206.285 51.2C203.418 54.9333 201.085 56.6667 199.285 56.4ZM244.141 56.5C243.274 56.5 242.541 56.4 241.941 56.2C241.341 56.0667 240.874 55.9 240.541 55.7C239.741 55.1 239.341 53.9667 239.341 52.3C239.341 51.7667 239.374 51.1667 239.441 50.5C239.574 49.8333 239.707 49.0667 239.841 48.2C240.107 46.6 240.974 43.7333 242.441 39.6C242.774 38.7333 243.041 37.9667 243.241 37.3C243.507 36.6333 243.707 36.0667 243.841 35.6L244.341 34.3C242.874 34.3 240.407 34.6 236.941 35.2H236.841C236.574 35.2 236.441 34.8667 236.441 34.2C236.441 33.4 236.741 32.9 237.341 32.7C237.807 32.5 240.374 32.2333 245.041 31.9C245.574 30.1667 246.207 28.1667 246.941 25.9C247.741 23.5667 248.641 21 249.641 18.2C249.707 17.8 249.974 17.6 250.441 17.6C250.974 17.6 251.574 18.0667 252.241 19C252.907 19.8667 253.241 20.7 253.241 21.5C253.241 21.7667 253.207 21.9667 253.141 22.1L248.241 31.9C249.107 31.8333 249.874 31.8 250.541 31.8C251.274 31.8 251.974 31.8 252.641 31.8C256.441 31.8 258.374 32.1 258.441 32.7C258.441 32.9667 256.841 33.2333 253.641 33.5C252.774 33.5667 252.007 33.6333 251.341 33.7C250.674 33.7 250.074 33.7667 249.541 33.9L247.641 34.2C246.907 34.2 245.874 36.9667 244.541 42.5C243.341 47.4333 242.741 50.3667 242.741 51.3C242.741 53.3 243.474 54.3 244.941 54.3C246.074 54.3 248.307 53.4 251.641 51.6C252.041 51.3333 252.541 51 253.141 50.6C253.741 50.1333 254.474 49.5667 255.341 48.9C256.674 47.7667 257.507 47.2 257.841 47.2C257.974 47.2 258.074 47.3333 258.141 47.6C258.141 48.5333 256.407 50.2 252.941 52.6C249.341 55.2 246.407 56.5 244.141 56.5ZM279.84 29.5C279.307 29.5 278.74 29.4 278.14 29.2C277.607 28.9333 277.34 28.7 277.34 28.5C277.34 28.3667 277.373 28.2667 277.44 28.2C279.773 26.2667 281.707 25.3 283.24 25.3C283.64 25.3 283.84 25.4333 283.84 25.7C283.84 26.1 283.407 26.7667 282.54 27.7C281.673 28.6333 280.973 29.2 280.44 29.4C280.373 29.4 280.273 29.4333 280.14 29.5C280.073 29.5 279.973 29.5 279.84 29.5ZM275.14 55.9C273.007 55.9 271.94 54.0333 271.94 50.3V49.1C271.94 48.7 271.973 48.2667 272.04 47.8C272.173 46.9333 272.373 45.8667 272.64 44.6C272.907 43.3333 273.273 41.8333 273.74 40.1L275.34 34.4C275.407 33.9333 276.073 33.7 277.34 33.7C278.873 33.7 279.64 34.0667 279.64 34.8C279.64 35.6667 279.407 36.6 278.94 37.6C278.407 39 277.807 39.7333 277.14 39.8C276.807 39.9333 276.307 42.8 275.64 48.4C275.507 49.3333 275.44 50.0667 275.44 50.6C275.44 52.6667 275.973 53.7 277.04 53.7C277.84 53.7 278.907 53.1333 280.24 52L286.34 46.9C286.607 46.7 286.807 46.6667 286.94 46.8C287.14 46.8667 287.173 47.0667 287.04 47.4C285.907 49.1333 283.807 51.1333 280.74 53.4C278.473 55.0667 276.607 55.9 275.14 55.9Z" fill="#fdacb3"/>
</svg>
