<svg width="36" height="36" viewBox="0 0 36 36" fill="none" xmlns="http://www.w3.org/2000/svg">
<path d="M18 0C27.9422 0 36 8.05781 36 18C36 27.9422 27.9422 36 18 36C8.05781 36 0 27.9422 0 18C0 8.05781 8.05781 0 18 0ZM6.76406 29.2289C8.22656 30.6914 9.92109 31.8375 11.8125 32.632C13.7672 33.4617 15.8484 33.8766 18 33.8766C20.1445 33.8766 22.2258 33.4547 24.1875 32.632C26.0789 31.8305 27.7805 30.6844 29.2359 29.2289C30.6984 27.7664 31.8445 26.0719 32.6391 24.1805C33.4687 22.2258 33.8906 20.1445 33.8906 18C33.8906 15.8555 33.4688 13.7742 32.6461 11.8125C31.8445 9.92109 30.6984 8.21953 29.243 6.76406C27.7734 5.30156 26.0789 4.15547 24.1875 3.35391C22.2258 2.53125 20.1445 2.10938 18 2.10938C15.8555 2.10938 13.7742 2.53125 11.8125 3.35391C9.92109 4.15547 8.21953 5.30156 6.76406 6.75703C5.30156 8.21953 4.15547 9.91406 3.36094 11.8055C2.53125 13.7602 2.11641 15.8414 2.11641 17.993C2.11641 20.1375 2.53828 22.2188 3.36094 24.1805C4.1625 26.0719 5.30859 27.7734 6.76406 29.2289Z" fill="#ECECEC"/>
<path d="M24.152 17.904H21.16V19.216H24.152V17.904ZM18.6526 20.608L14.4286 18.144L18.6526 15.68V14.064L11.5646 18.144L18.6526 22.24V20.608Z" fill="#ECECEC"/>
</svg>
