<svg width="16" height="16" viewBox="0 0 16 16" fill="none" xmlns="http://www.w3.org/2000/svg">
<path d="M9.36687 1.70033C9.25021 1.817 9.16687 2.25033 9.16687 2.667V3.45033L7.85021 3.717C6.28354 4.067 5.21687 4.717 4.51687 5.78366C3.95021 6.65033 3.45021 8.58366 3.53354 9.68366C3.56687 10.2837 3.65021 10.4337 3.93354 10.467C4.21687 10.5003 4.38354 10.3503 4.66687 9.75033C4.86687 9.33366 5.28354 8.80033 5.58354 8.567C6.33354 8.00033 7.68354 7.50033 8.50021 7.50033H9.16687V8.317C9.16687 9.15033 9.46687 9.617 9.86687 9.45033C10.4669 9.20033 14.4169 5.767 14.4169 5.50033C14.4169 5.20033 10.1002 1.517 9.75021 1.50033C9.65021 1.50033 9.48354 1.58366 9.36687 1.70033ZM11.7502 4.28366C12.5169 4.917 13.1502 5.45033 13.1502 5.50033C13.1502 5.60033 10.4002 7.83366 10.2669 7.83366C10.2335 7.83366 10.1669 7.55033 10.1335 7.20033L10.0835 6.58366L9.16687 6.53366C7.90021 6.45033 6.70021 6.75033 5.60021 7.417C4.71687 7.95033 4.65021 7.967 4.76687 7.617C5.01687 6.78366 5.40021 6.13366 5.95021 5.65033C6.70021 5.00033 7.13354 4.83366 8.75021 4.60033L10.0835 4.40033L10.1335 3.78366C10.1669 3.45033 10.2335 3.167 10.2669 3.167C10.3169 3.167 10.9835 3.667 11.7502 4.28366Z" fill="#ECECEC"/>
<path d="M2.8 2.83333C2.41667 3.05 2.03333 3.43333 1.83333 3.83333C1.53333 4.43333 1.5 4.8 1.5 8.5C1.5 13.0833 1.58333 13.45 2.8 14.1333C3.43333 14.4833 3.6 14.5 7.98333 14.5C13.15 14.5 13.4333 14.4333 14.1333 13.2C14.4833 12.5667 14.5 12.3667 14.4667 9.8L14.4167 7.08333H14H13.5833L13.5 9.88333L13.4167 12.7L12.95 13.1L12.4833 13.5H7.98333H3.46667L2.98333 13.0167L2.5 12.5333V8.51667C2.5 4.53333 2.5 4.51667 2.9 4.05C3.28333 3.6 3.38333 3.58333 5.11667 3.5C6.9 3.41667 6.91667 3.41667 6.91667 3C6.91667 2.58333 6.91667 2.58333 5.16667 2.55C3.7 2.51667 3.31667 2.56667 2.8 2.83333Z" fill="#ECECEC"/>
</svg>
